<svg viewBox="495 409 138 69" preserveAspectRatio="xMinYMin" version="1.1" xmlns="http://www.w3.org/2000/svg" xmlns:xlink="http://www.w3.org/1999/xlink">

    <path d="M522.5876,451.2284 L518.6056,438.2564 L518.4776,438.2564 L514.1956,451.2284 L522.5876,451.2284 Z M513.7246,432.2194 L524.1716,432.2194 L536.3736,463.1314 L526.6976,463.1314 L524.5566,456.9224 L512.1836,456.9224 L510.0856,463.1314 L501.5236,463.1314 L513.7246,432.2194 Z" id="Fill-3" stroke="none" fill="#ffffff" fill-rule="evenodd"></path>
    <path d="M546.7344,441.6388 L546.7344,454.1828 C546.7344,455.3818 546.7344,458.3788 549.9454,458.3788 C553.3274,458.3788 553.3274,455.2958 553.3274,454.0968 L553.3274,441.6388 L561.3764,441.6388 L561.3764,459.4058 C561.4624,461.2468 561.4624,461.4618 561.5054,463.1308 L553.5844,463.1308 L553.4134,459.7918 C551.2294,463.2598 548.5324,463.5158 546.6484,463.5158 C539.1994,463.5158 538.7284,457.8648 538.7284,453.7548 L538.7284,441.6388 L546.7344,441.6388 L546.7344,441.6388 Z" id="Fill-4" stroke="none" fill="#ffffff" fill-rule="evenodd"></path>
    <path d="M566.5576,446.2193 L566.3436,441.6383 L574.1786,441.6383 L574.3066,446.0913 C576.1476,441.2953 580.0436,441.4233 581.8846,441.4673 L581.8846,448.3603 C580.9426,448.2743 580.7286,448.2313 580.1726,448.2313 C575.2486,448.2313 574.5636,451.6993 574.5636,454.0113 L574.5636,463.1313 L566.5576,463.1313 L566.5576,446.2193 Z" id="Fill-6" stroke="none" fill="#ffffff" fill-rule="evenodd"></path>
    <path d="M599.5656,449.644 C599.4806,448.403 599.2236,445.149 595.7126,445.149 C592.2016,445.149 591.9026,448.617 591.8166,449.644 L599.5656,449.644 Z M591.7316,454.012 C591.7316,455.167 591.7316,459.235 595.8416,459.235 C597.9816,459.235 599.3086,458.122 599.5226,456.11 L607.0156,456.11 C606.4156,461.504 601.3646,463.602 595.7986,463.602 C588.3056,463.602 584.2816,459.835 584.2816,452.727 C584.2816,445.535 587.7926,440.867 595.7126,440.867 C601.7066,440.867 604.4896,443.308 605.9456,446.348 C606.8866,448.189 607.1436,450.244 607.1436,454.012 L591.7316,454.012 Z" id="Fill-8" stroke="none" fill="#ffffff" fill-rule="evenodd"></path>
    <path d="M618.1475,456.1523 C618.1475,457.7363 619.1745,459.0633 621.1015,459.0633 C621.9575,459.0633 623.4555,458.7213 624.2695,457.0083 C624.9115,455.6383 624.9115,453.8833 624.8695,452.9843 C621.4435,453.0273 618.1475,453.0693 618.1475,456.1523 L618.1475,456.1523 Z M625.1265,463.1313 C624.9545,462.3603 624.8695,461.4183 624.8695,460.0483 C623.8845,461.5043 622.2145,463.5583 617.8045,463.5583 C612.5385,463.5583 610.2265,460.6903 610.2265,456.8803 C610.2265,451.0153 615.6645,448.8733 624.9115,449.2583 C624.9545,446.9473 624.6555,444.8063 622.2145,444.8063 C620.7155,444.8063 619.3035,445.6193 619.3455,448.0603 L611.6395,448.0603 C611.6825,447.0753 611.6825,445.2343 613.3095,443.5653 C614.9785,441.8523 618.3185,440.8673 622.2145,440.8673 C624.1415,440.8673 628.2515,441.1253 630.5205,443.3503 C631.8905,444.6783 632.4045,446.6903 632.4045,449.0023 L632.4045,459.0203 C632.4045,460.5623 632.4465,460.9903 632.8325,463.1313 L625.1265,463.1313 Z" id="Fill-10" stroke="none" fill="#ffffff" fill-rule="evenodd"></path>
    <path d="M496.529,476.1327 L566.198,476.1327 L566.198,411.5287 L496.529,411.5287 L496.529,476.1327 Z M495,477.6617 L567.727,477.6617 L567.727,409.9997 L495,409.9997 L495,477.6617 Z" id="Fill-12" stroke="none" fill="#ffffff" fill-rule="evenodd"></path>

</svg>
